<svg width="186" height="67" viewBox="0 0 186 67" fill="none" xmlns="http://www.w3.org/2000/svg">
<path fill-rule="evenodd" clip-rule="evenodd" d="M59.8103 27.3456C59.2356 28.0938 58.555 28.6872 57.7685 29.126C56.8761 29.6238 55.8349 29.8727 54.6451 29.8727C53.3932 29.8727 52.2777 29.6176 51.2985 29.1073C50.3318 28.597 49.5137 27.8814 48.8444 26.9604C48.1875 26.0393 47.6855 24.9565 47.3385 23.7119C46.9914 22.4673 46.8179 21.1107 46.8179 19.642V19.25C46.8179 17.7067 46.9914 16.3065 47.3385 15.0494C47.6855 13.7799 48.1937 12.6909 48.863 11.7823C49.5323 10.8738 50.3566 10.1706 51.3357 9.67272C52.3149 9.17488 53.4304 8.92596 54.6822 8.92596C55.8597 8.92596 56.8885 9.17488 57.7685 9.67272C58.4328 10.0433 59.0215 10.5311 59.5347 11.1362V0.823547H64.9263V29.4994H60.0739L59.8103 27.3456ZM59.5347 15.3256C59.4025 15.0473 59.2476 14.7934 59.0699 14.564C58.7352 14.116 58.3138 13.7675 57.8057 13.5186C57.3099 13.2696 56.7211 13.1452 56.0394 13.1452C55.3453 13.1452 54.7504 13.307 54.2546 13.6306C53.7589 13.9417 53.356 14.3711 53.0462 14.9188C52.7487 15.4664 52.5256 16.1136 52.3769 16.8603C52.2405 17.5947 52.1724 18.3912 52.1724 19.25V19.642C52.1724 20.4759 52.2343 21.2538 52.3583 21.9757C52.4946 22.6976 52.7115 23.3385 53.009 23.8986C53.3188 24.4462 53.7155 24.8756 54.1989 25.1868C54.6946 25.4855 55.2958 25.6348 56.0023 25.6348C56.9194 25.6348 57.6755 25.4295 58.2705 25.0188C58.8084 24.6361 59.2298 24.1263 59.5347 23.4893V15.3256ZM17.2756 20.4822H22.8345C22.723 22.3117 22.221 23.936 21.3286 25.3548C20.4486 26.7737 19.2153 27.8814 17.6288 28.6779C16.0547 29.4745 14.1584 29.8727 11.9398 29.8727C10.2045 29.8727 8.64902 29.574 7.27323 28.9766C5.89744 28.3668 4.71996 27.4955 3.7408 26.3629C2.77402 25.2303 2.03655 23.8613 1.52838 22.2557C1.0202 20.6502 0.766113 18.8517 0.766113 16.8603V14.9748C0.766113 12.9834 1.0264 11.1849 1.54697 9.57938C2.07993 7.96139 2.836 6.58609 3.81516 5.4535C4.80672 4.3209 5.9904 3.44967 7.36619 2.83982C8.74198 2.22996 10.2789 1.92503 11.9769 1.92503C14.2328 1.92503 16.1353 2.33575 17.6846 3.15719C19.2463 3.97863 20.4548 5.11123 21.31 6.55498C22.1776 7.99872 22.6982 9.64161 22.8717 11.4836H17.2942C17.2322 10.3884 17.0153 9.46114 16.6435 8.70193C16.2716 7.93027 15.7077 7.35153 14.9516 6.9657C14.208 6.56742 13.2164 6.36828 11.9769 6.36828C11.0474 6.36828 10.2355 6.54253 9.54143 6.89102C8.84733 7.23951 8.26479 7.76847 7.7938 8.4779C7.32281 9.18733 6.96957 10.0834 6.73407 11.1663C6.51097 12.2366 6.39942 13.4937 6.39942 14.9374V16.8603C6.39942 18.2668 6.50477 19.5051 6.71548 20.5755C6.92619 21.6334 7.24844 22.5295 7.68225 23.2639C8.12845 23.9857 8.6986 24.5334 9.39269 24.9067C10.0992 25.2677 10.9482 25.4482 11.9398 25.4482C13.1048 25.4482 14.0654 25.2615 14.8215 24.8881C15.5776 24.5147 16.1539 23.9608 16.5505 23.2265C16.9595 22.4922 17.2012 21.5774 17.2756 20.4822ZM25.3072 19.6047V19.2127C25.3072 17.7316 25.518 16.3687 25.9394 15.1241C26.3608 13.8671 26.9743 12.778 27.78 11.857C28.5856 10.936 29.5772 10.2204 30.7546 9.71006C31.9321 9.18733 33.2831 8.92596 34.8076 8.92596C36.3322 8.92596 37.6894 9.18733 38.8792 9.71006C40.0691 10.2204 41.0669 10.936 41.8725 11.857C42.6906 12.778 43.3103 13.8671 43.7317 15.1241C44.1531 16.3687 44.3638 17.7316 44.3638 19.2127V19.6047C44.3638 21.0734 44.1531 22.4362 43.7317 23.6933C43.3103 24.9379 42.6906 26.0269 41.8725 26.9604C41.0669 27.8814 40.0753 28.597 38.8978 29.1073C37.7204 29.6176 36.3694 29.8727 34.8448 29.8727C33.3203 29.8727 31.9631 29.6176 30.7732 29.1073C29.5957 28.597 28.598 27.8814 27.78 26.9604C26.9743 26.0269 26.3608 24.9379 25.9394 23.6933C25.518 22.4362 25.3072 21.0734 25.3072 19.6047ZM30.6617 19.2127V19.6047C30.6617 20.451 30.736 21.2414 30.8848 21.9757C31.0335 22.71 31.269 23.3572 31.5913 23.9173C31.9259 24.4649 32.3597 24.8943 32.8927 25.2055C33.4257 25.5166 34.0764 25.6722 34.8448 25.6722C35.5885 25.6722 36.2268 25.5166 36.7598 25.2055C37.2927 24.8943 37.7204 24.4649 38.0426 23.9173C38.3649 23.3572 38.6004 22.71 38.7491 21.9757C38.9102 21.2414 38.9908 20.451 38.9908 19.6047V19.2127C38.9908 18.3912 38.9102 17.6196 38.7491 16.8977C38.6004 16.1634 38.3587 15.5162 38.024 14.9561C37.7018 14.3836 37.2741 13.9355 36.7412 13.6119C36.2082 13.2883 35.5637 13.1265 34.8076 13.1265C34.0516 13.1265 33.4071 13.2883 32.8741 13.6119C32.3535 13.9355 31.9259 14.3836 31.5913 14.9561C31.269 15.5162 31.0335 16.1634 30.8848 16.8977C30.736 17.6196 30.6617 18.3912 30.6617 19.2127ZM78.3682 29.8727C76.8064 29.8727 75.4059 29.6238 74.1664 29.126C72.927 28.6157 71.8734 27.9125 71.0058 27.0164C70.1506 26.1202 69.4937 25.081 69.0351 23.8986C68.5765 22.7038 68.3472 21.4343 68.3472 20.0901V19.3433C68.3472 17.8125 68.5641 16.4123 68.9979 15.1428C69.4317 13.8733 70.0514 12.7718 70.8571 11.8383C71.6751 10.9049 72.6667 10.1892 73.8318 9.69139C74.9968 9.1811 76.3107 8.92596 77.7732 8.92596C79.1986 8.92596 80.4628 9.16243 81.5659 9.63539C82.6691 10.1083 83.5924 10.7804 84.3361 11.6517C85.0922 12.5229 85.6623 13.5684 86.0466 14.7881C86.4308 15.9953 86.6229 17.3395 86.6229 18.8206V21.0609H73.7773C73.8314 21.5055 73.9239 21.9287 74.0549 22.3304C74.2904 23.0149 74.6188 23.6061 75.0402 24.104C75.474 24.6018 75.9946 24.9876 76.6019 25.2615C77.2217 25.5353 77.922 25.6722 78.7028 25.6722C79.6696 25.6722 80.5682 25.4855 81.3986 25.1121C82.2414 24.7263 82.9665 24.1475 83.5738 23.3759L86.1767 26.2136C85.7553 26.8234 85.1789 27.4084 84.4477 27.9685C83.7288 28.5286 82.8612 28.9891 81.8448 29.35C80.8285 29.6985 79.6696 29.8727 78.3682 29.8727ZM73.9433 16.879C73.9047 17.0731 73.871 17.2722 73.8424 17.4764H81.3614V17.0657C81.3614 16.3189 81.2251 15.6531 80.9524 15.0681C80.6921 14.4707 80.2955 13.9977 79.7625 13.6493C79.2296 13.3008 78.5479 13.1265 77.7174 13.1265C77.011 13.1265 76.4036 13.2821 75.8954 13.5932C75.3873 13.9044 74.9721 14.34 74.6498 14.9001C74.3399 15.4602 74.1044 16.1198 73.9433 16.879ZM95.0264 15.1721V29.4994H89.6534V9.29934H94.6917L94.8768 11.6122C95.5327 10.7745 96.3324 10.1218 97.276 9.65405C98.2551 9.16866 99.3892 8.92596 100.678 8.92596C101.571 8.92596 102.389 9.06287 103.132 9.33668C103.876 9.59805 104.514 10.015 105.047 10.5875C105.433 10.984 105.757 11.4677 106.019 12.0388C106.107 11.9068 106.198 11.7777 106.293 11.6517C106.95 10.7929 107.762 10.127 108.729 9.65405C109.695 9.16866 110.811 8.92596 112.075 8.92596C113.042 8.92596 113.922 9.06909 114.715 9.35535C115.508 9.62916 116.184 10.071 116.742 10.6809C117.312 11.2783 117.746 12.0624 118.043 13.0332C118.353 14.004 118.508 15.1926 118.508 16.599V29.4994H113.135V16.599C113.135 15.6655 113.011 14.9561 112.763 14.4707C112.527 13.9729 112.18 13.6306 111.722 13.4439C111.276 13.2448 110.743 13.1452 110.123 13.1452C109.478 13.1452 108.914 13.2759 108.431 13.5372C107.948 13.7862 107.545 14.1347 107.223 14.5827C107.037 14.8405 106.878 15.123 106.746 15.4303C106.754 15.6223 106.758 15.819 106.758 16.0202V29.4994H101.403V16.6176C101.403 15.6966 101.279 14.9872 101.032 14.4894C100.784 13.9915 100.43 13.643 99.9718 13.4439C99.5256 13.2448 98.9864 13.1452 98.3543 13.1452C97.6602 13.1452 97.0529 13.2883 96.5323 13.5746C96.0241 13.8608 95.6027 14.2591 95.2681 14.7694C95.1817 14.8978 95.1012 15.0321 95.0264 15.1721ZM128.008 37.2657V27.745C128.511 28.3081 129.087 28.7684 129.737 29.126C130.642 29.6238 131.708 29.8727 132.935 29.8727C134.199 29.8727 135.315 29.6176 136.282 29.1073C137.261 28.5846 138.079 27.8627 138.736 26.9417C139.393 26.0082 139.888 24.913 140.223 23.6559C140.57 22.3989 140.744 21.036 140.744 19.5674V19.1753C140.744 17.6444 140.57 16.2505 140.223 14.9934C139.888 13.7364 139.386 12.6536 138.717 11.745C138.06 10.8364 137.242 10.1395 136.263 9.65405C135.296 9.16866 134.174 8.92596 132.898 8.92596C131.683 8.92596 130.623 9.17488 129.719 9.67272C128.995 10.0762 128.362 10.6145 127.818 11.2877L127.618 9.29934H122.654V37.2657H128.008ZM129.217 25.0374C128.694 24.666 128.292 24.1796 128.008 23.578V15.1937C128.122 14.9532 128.252 14.7309 128.399 14.5267C128.721 14.0786 129.136 13.7364 129.644 13.4999C130.165 13.2634 130.791 13.1452 131.522 13.1452C132.216 13.1452 132.805 13.3008 133.288 13.6119C133.784 13.9106 134.181 14.3338 134.478 14.8814C134.788 15.429 135.011 16.07 135.147 16.8043C135.296 17.5262 135.371 18.3165 135.371 19.1753V19.5674C135.371 20.4137 135.302 21.204 135.166 21.9384C135.042 22.6727 134.825 23.3199 134.515 23.8799C134.218 24.44 133.827 24.8819 133.344 25.2055C132.861 25.5166 132.266 25.6722 131.559 25.6722C130.592 25.6722 129.812 25.4606 129.217 25.0374ZM149.723 29.4994V9.29934H144.35V29.4994H149.723ZM144.834 2.09305C144.288 2.60334 144.016 3.25054 144.016 4.03464C144.016 4.81875 144.288 5.46594 144.834 5.97623C145.379 6.48652 146.11 6.74167 147.028 6.74167C147.932 6.74167 148.657 6.48652 149.203 5.97623C149.761 5.46594 150.039 4.81875 150.039 4.03464C150.039 3.25054 149.761 2.60334 149.203 2.09305C148.657 1.58276 147.932 1.32761 147.028 1.32761C146.11 1.32761 145.379 1.58276 144.834 2.09305ZM159.503 29.4994V16.1757C159.678 15.7812 159.907 15.4369 160.191 15.1428C160.562 14.7694 161.021 14.4894 161.566 14.3027C162.124 14.1035 162.781 14.004 163.537 14.004C163.835 14.004 164.163 14.0226 164.522 14.06C164.894 14.0849 165.21 14.116 165.471 14.1533L165.564 9.16866C165.365 9.09398 165.111 9.03797 164.801 9.00063C164.491 8.95085 164.188 8.92596 163.89 8.92596C162.948 8.92596 162.112 9.14999 161.38 9.59805C160.649 10.0461 160.029 10.6809 159.521 11.5023C159.467 11.5914 159.415 11.6821 159.364 11.7745L159.187 9.29934H154.148V29.4994H159.503ZM172.777 29.126C174.017 29.6238 175.417 29.8727 176.979 29.8727C178.28 29.8727 179.439 29.6985 180.456 29.35C181.472 28.9891 182.34 28.5286 183.058 27.9685C183.79 27.4084 184.366 26.8234 184.787 26.2136L182.185 23.3759C181.577 24.1475 180.852 24.7263 180.009 25.1121C179.179 25.4855 178.28 25.6722 177.314 25.6722C176.533 25.6722 175.832 25.5353 175.213 25.2615C174.605 24.9876 174.085 24.6018 173.651 24.104C173.23 23.6061 172.901 23.0149 172.666 22.3304C172.535 21.9287 172.442 21.5055 172.388 21.0609H185.234V18.8206C185.234 17.3395 185.042 15.9953 184.657 14.7881C184.273 13.5684 183.703 12.5229 182.947 11.6517C182.203 10.7804 181.28 10.1083 180.177 9.63539C179.074 9.16243 177.809 8.92596 176.384 8.92596C174.921 8.92596 173.608 9.1811 172.443 9.69139C171.277 10.1892 170.286 10.9049 169.468 11.8383C168.662 12.7718 168.042 13.8733 167.609 15.1428C167.175 16.4123 166.958 17.8125 166.958 19.3433V20.0901C166.958 21.4343 167.187 22.7038 167.646 23.8986C168.104 25.081 168.761 26.1202 169.617 27.0164C170.484 27.9125 171.538 28.6157 172.777 29.126ZM172.453 17.4764C172.482 17.2722 172.515 17.0731 172.554 16.879C172.715 16.1198 172.951 15.4602 173.261 14.9001C173.583 14.34 173.998 13.9044 174.506 13.5932C175.014 13.2821 175.622 13.1265 176.328 13.1265C177.159 13.1265 177.84 13.3008 178.373 13.6493C178.906 13.9977 179.303 14.4707 179.563 15.0681C179.836 15.6531 179.972 16.3189 179.972 17.0657V17.4764H172.453ZM51.8005 66.3336H48.361V48.7846H45.1818V46.1336H48.361V44.0053C48.361 42.5491 48.6213 41.3232 49.1419 40.3275C49.6749 39.3193 50.4371 38.5601 51.4287 38.0498C52.4202 37.5271 53.5977 37.2657 54.9611 37.2657C55.3577 37.2657 55.7544 37.2906 56.151 37.3404C56.56 37.3902 56.9566 37.4649 57.3409 37.5644L57.1549 40.3835C56.8947 40.3212 56.5972 40.2777 56.2625 40.2528C55.9403 40.2279 55.618 40.2155 55.2958 40.2155C54.5645 40.2155 53.9324 40.3648 53.3994 40.6635C52.8788 40.9498 52.4822 41.3729 52.2095 41.933C51.9369 42.4931 51.8005 43.1838 51.8005 44.0053V46.1336H56.0766V48.7846H51.8005V66.3336ZM21.5889 57.6898H18.0193C17.821 58.9593 17.4863 60.0483 17.0153 60.9569C16.5567 61.8654 15.875 62.5624 14.9702 63.0478C14.0654 63.5332 12.8508 63.7759 11.3262 63.7759C10.124 63.7759 9.08283 63.527 8.20282 63.0291C7.32281 62.5189 6.59773 61.8219 6.02758 60.9382C5.45744 60.0545 5.02983 59.0277 4.74475 57.8578C4.47207 56.6879 4.33573 55.437 4.33573 54.1053V51.3609C4.33573 49.9172 4.49066 48.6041 4.80053 47.4217C5.11039 46.2394 5.56899 45.225 6.17632 44.3787C6.79604 43.5323 7.55831 42.8789 8.46311 42.4184C9.3803 41.9579 10.44 41.7276 11.6423 41.7276C13.0429 41.7276 14.177 41.9766 15.0446 42.4744C15.9122 42.9723 16.5815 43.6817 17.0525 44.6027C17.5235 45.5113 17.8458 46.6003 18.0193 47.8698H21.5889C21.403 46.0776 20.9134 44.5031 20.1201 43.1465C19.3393 41.7774 18.2424 40.7071 16.8294 39.9354C15.4164 39.1638 13.6874 38.7779 11.6423 38.7779C9.96904 38.7779 8.46311 39.0766 7.1245 39.674C5.78589 40.2715 4.6394 41.124 3.68502 42.2317C2.74304 43.3394 2.01796 44.6712 1.50978 46.2269C1.014 47.7702 0.766113 49.494 0.766113 51.3983V54.1053C0.766113 56.0096 1.014 57.7396 1.50978 59.2953C2.01796 60.8386 2.73684 62.1641 3.66643 63.2719C4.59602 64.3671 5.70533 65.2134 6.99436 65.8109C8.29578 66.4083 9.73974 66.707 11.3262 66.707C13.4953 66.707 15.3049 66.3149 16.755 65.5308C18.2052 64.7343 19.3269 63.6577 20.1201 62.3011C20.9134 60.9444 21.403 59.4073 21.5889 57.6898ZM37.8971 64.1985C37.7333 64.3708 37.5587 64.5411 37.3733 64.7094C36.7412 65.2819 35.9851 65.7611 35.1051 66.1469C34.2375 66.5203 33.2583 66.707 32.1676 66.707C30.8042 66.707 29.6081 66.4394 28.5794 65.9042C27.563 65.369 26.7698 64.6534 26.1997 63.7572C25.6419 62.8487 25.363 61.8343 25.363 60.7142C25.363 59.6314 25.5737 58.6792 25.9951 57.8578C26.4166 57.0239 27.0239 56.3331 27.8171 55.7855C28.6104 55.2254 29.5648 54.8023 30.6803 54.516C31.7958 54.2298 33.0414 54.0866 34.4172 54.0866H37.8195V52.4811C37.8195 51.6845 37.6584 50.9938 37.3361 50.4088C37.0263 49.8114 36.5553 49.3509 35.9231 49.0273C35.291 48.7037 34.5102 48.5419 33.5806 48.5419C32.713 48.5419 31.9507 48.6912 31.2938 48.9899C30.6493 49.2887 30.1411 49.6807 29.7693 50.1661C29.4098 50.6515 29.2301 51.1742 29.2301 51.7343H25.7906C25.7906 51.0124 25.9766 50.2968 26.3484 49.5874C26.7202 48.8779 27.2532 48.237 27.9473 47.6644C28.6538 47.0795 29.4966 46.619 30.4758 46.2829C31.4673 45.9344 32.5704 45.7602 33.7851 45.7602C35.2476 45.7602 36.5367 46.0091 37.6522 46.507C38.7801 47.0048 39.6601 47.7578 40.2922 48.7659C40.9367 49.7616 41.259 51.0124 41.259 52.5184V61.9277C41.259 62.5998 41.3148 63.3154 41.4263 64.0746C41.5503 64.8338 41.73 65.4873 41.9655 66.0349V66.3336H38.3773C38.2037 65.9353 38.0674 65.4064 37.9682 64.7467C37.9407 64.5601 37.917 64.3774 37.8971 64.1985ZM37.8195 60.6543C37.7015 60.8895 37.5528 61.1273 37.3733 61.3676C36.9023 62.0148 36.264 62.5624 35.4584 63.0105C34.6527 63.4585 33.7231 63.6826 32.6696 63.6826C31.8268 63.6826 31.1141 63.5332 30.5315 63.2345C29.9614 62.9234 29.5338 62.5064 29.2487 61.9837C28.9636 61.4609 28.8211 60.8822 28.8211 60.2474C28.8211 59.6251 28.9574 59.0837 29.2301 58.6232C29.5028 58.1503 29.8994 57.7582 30.42 57.4471C30.9406 57.1359 31.5851 56.9057 32.3535 56.7563C33.122 56.5945 33.9958 56.5136 34.975 56.5136H37.8195V60.6543ZM63.9967 65.9975C65.137 66.4705 66.4074 66.707 67.808 66.707C69.1342 66.707 70.2807 66.5203 71.2475 66.1469C72.2267 65.7735 73.0509 65.2881 73.7202 64.6907C74.3895 64.0933 74.9411 63.4648 75.3749 62.8051L73.2926 61.1436C72.6605 61.9775 71.923 62.6433 71.0802 63.1412C70.2374 63.639 69.2086 63.8879 67.9939 63.8879C67.052 63.8879 66.2091 63.7075 65.4655 63.3465C64.7342 62.9856 64.1083 62.4877 63.5877 61.853C63.0795 61.2182 62.6891 60.4839 62.4164 59.65C62.1799 58.8811 62.0509 58.0658 62.0293 57.2044H75.6352V55.6548C75.6352 54.236 75.474 52.9291 75.1518 51.7343C74.8295 50.527 74.3337 49.4816 73.6644 48.5979C72.9951 47.7018 72.1337 47.0048 71.0802 46.507C70.039 46.0091 68.7996 45.7602 67.3618 45.7602C66.2339 45.7602 65.1432 45.9904 64.0897 46.4509C63.0361 46.9115 62.0942 47.5898 61.2637 48.4859C60.4333 49.382 59.7764 50.4773 59.293 51.7717C58.8096 53.0536 58.5679 54.516 58.5679 56.1589V56.943C58.5679 58.3619 58.7848 59.6687 59.2186 60.8635C59.6524 62.0584 60.2722 63.0914 61.0778 63.9626C61.8958 64.8338 62.8688 65.5121 63.9967 65.9975ZM62.1299 54.3853C62.1949 53.8664 62.2904 53.381 62.4164 52.9291C62.6767 51.9957 63.0423 51.2054 63.5133 50.5582C63.9843 49.911 64.5483 49.4256 65.2052 49.102C65.8621 48.7659 66.581 48.5979 67.3618 48.5979C68.5393 48.5979 69.4689 48.8717 70.1506 49.4193C70.8323 49.967 71.3281 50.6639 71.6379 51.5103C71.9602 52.3566 72.1461 53.2278 72.1957 54.124V54.3853H62.1299Z" fill="#131316"/>
</svg>
