<svg width="396" height="143" viewBox="0 0 396 143" fill="none" xmlns="http://www.w3.org/2000/svg">
    <path fill-rule="evenodd" clip-rule="evenodd"
        d="M126.924 57.7001C125.693 59.3078 124.236 60.5831 122.552 61.526C120.64 62.5958 118.411 63.1307 115.863 63.1307C113.182 63.1307 110.793 62.5825 108.696 61.4859C106.626 60.3893 104.874 58.8514 103.441 56.8722C102.034 54.893 100.959 52.5661 100.216 49.8915C99.4725 47.2169 99.1009 44.3016 99.1009 41.1456V40.3031C99.1009 36.9866 99.4725 33.9777 100.216 31.2764C100.959 28.5483 102.047 26.2081 103.48 24.2556C104.914 22.3032 106.679 20.792 108.776 19.7222C110.873 18.6524 113.262 18.1174 115.942 18.1174C118.464 18.1174 120.667 18.6524 122.552 19.7222C123.974 20.5185 125.235 21.5668 126.334 22.8671V0.705872H137.88V62.3284H127.489L126.924 57.7001ZM126.334 31.8698C126.051 31.2718 125.719 30.7263 125.339 30.2333C124.622 29.2705 123.719 28.5216 122.631 27.9867C121.569 27.4517 120.309 27.1843 118.849 27.1843C117.362 27.1843 116.088 27.532 115.027 28.2274C113.965 28.896 113.102 29.8188 112.439 30.9956C111.802 32.1724 111.324 33.5632 111.005 35.1679C110.713 36.7459 110.567 38.4577 110.567 40.3031V41.1456C110.567 42.9376 110.7 44.6092 110.966 46.1605C111.258 47.7117 111.722 49.0892 112.359 50.2927C113.023 51.4695 113.872 52.3923 114.907 53.0609C115.969 53.7028 117.256 54.0238 118.769 54.0238C120.733 54.0238 122.352 53.5825 123.627 52.6999C124.779 51.8776 125.681 50.782 126.334 49.413V31.8698ZM35.8357 42.951H47.7402C47.5013 46.8826 46.4263 50.373 44.5152 53.422C42.6307 56.471 39.9897 58.8514 36.5922 60.5631C33.2212 62.2749 29.1601 63.1307 24.409 63.1307C20.6929 63.1307 17.3618 62.4888 14.4155 61.205C11.4693 59.8945 8.94767 58.0223 6.85078 55.5884C4.78043 53.1545 3.20112 50.2125 2.11286 46.7623C1.0246 43.312 0.480469 39.4473 0.480469 35.1679V31.1159C0.480469 26.8366 1.03787 22.9718 2.15268 19.5216C3.29402 16.0446 4.91314 13.0892 7.01004 10.6553C9.13348 8.22146 11.6683 6.34925 14.6146 5.0387C17.5609 3.72816 20.8522 3.07288 24.4886 3.07288C29.3194 3.07288 33.3937 3.9555 36.7116 5.72072C40.056 7.48595 42.644 9.91983 44.4754 13.0223C46.3334 16.1249 47.4482 19.6553 47.8198 23.6137H35.8755C35.7428 21.2601 35.2783 19.2675 34.482 17.636C33.6857 15.9778 32.478 14.7341 30.8589 13.905C29.2663 13.0491 27.1429 12.6212 24.4886 12.6212C22.4979 12.6212 20.7593 12.9956 19.2729 13.7445C17.7865 14.4934 16.539 15.6301 15.5303 17.1546C14.5217 18.6791 13.7652 20.6048 13.2609 22.9317C12.7831 25.2318 12.5442 27.9332 12.5442 31.0357V35.1679C12.5442 38.1902 12.7699 40.8514 13.2211 43.1516C13.6723 45.425 14.3624 47.3507 15.2914 48.9287C16.247 50.4799 17.468 51.6568 18.9544 52.4591C20.4673 53.2348 22.2855 53.6226 24.409 53.6226C26.904 53.6226 28.9611 53.2214 30.5802 52.419C32.1993 51.6166 33.4336 50.4265 34.2829 48.8484C35.1589 47.2704 35.6764 45.3046 35.8357 42.951ZM53.0355 41.0654V40.2229C53.0355 37.0401 53.4868 34.1115 54.3892 31.4369C55.2917 28.7355 56.6056 26.3953 58.3309 24.4161C60.0562 22.4369 62.1796 20.899 64.7012 19.8024C67.2228 18.6791 70.1159 18.1174 73.3807 18.1174C76.6455 18.1174 79.552 18.6791 82.1001 19.8024C84.6482 20.899 86.7849 22.4369 88.5102 24.4161C90.262 26.3953 91.5892 28.7355 92.4917 31.4369C93.3941 34.1115 93.8454 37.0401 93.8454 40.2229V41.0654C93.8454 44.2214 93.3941 47.1501 92.4917 49.8514C91.5892 52.526 90.262 54.8663 88.5102 56.8722C86.7849 58.8514 84.6615 60.3893 82.1399 61.4859C79.6183 62.5825 76.7251 63.1307 73.4604 63.1307C70.1956 63.1307 67.2891 62.5825 64.741 61.4859C62.2194 60.3893 60.0827 58.8514 58.3309 56.8722C56.6056 54.8663 55.2917 52.526 54.3892 49.8514C53.4868 47.1501 53.0355 44.2214 53.0355 41.0654ZM64.5021 40.2229V41.0654C64.5021 42.8841 64.6614 44.5825 64.9799 46.1605C65.2984 47.7385 65.8027 49.1293 66.4928 50.3328C67.2095 51.5097 68.1385 52.4324 69.2798 53.101C70.4212 53.7697 71.8147 54.104 73.4604 54.104C75.0529 54.104 76.4199 53.7697 77.5612 53.101C78.7026 52.4324 79.6183 51.5097 80.3084 50.3328C80.9986 49.1293 81.5029 47.7385 81.8214 46.1605C82.1664 44.5825 82.339 42.8841 82.339 41.0654V40.2229C82.339 38.4577 82.1664 36.7994 81.8214 35.2482C81.5029 33.6702 80.9853 32.2794 80.2686 31.0758C79.5785 29.8455 78.6628 28.8827 77.5214 28.1873C76.3801 27.4919 74.9998 27.1442 73.3807 27.1442C71.7616 27.1442 70.3814 27.4919 69.24 28.1873C68.1252 28.8827 67.2095 29.8455 66.4928 31.0758C65.8027 32.2794 65.2984 33.6702 64.9799 35.2482C64.6614 36.7994 64.5021 38.4577 64.5021 40.2229ZM166.666 63.1307C163.322 63.1307 160.322 62.5958 157.668 61.526C155.014 60.4294 152.757 58.9183 150.899 56.9926C149.068 55.0669 147.661 52.8336 146.679 50.2927C145.697 47.7251 145.206 44.997 145.206 42.1085V40.5037C145.206 37.214 145.67 34.2051 146.599 31.477C147.529 28.7489 148.856 26.3819 150.581 24.376C152.333 22.37 154.456 20.8321 156.951 19.7623C159.446 18.6657 162.26 18.1174 165.392 18.1174C168.444 18.1174 171.152 18.6256 173.514 19.642C175.876 20.6583 177.854 22.1026 179.446 23.9748C181.066 25.847 182.287 28.0936 183.109 30.7147C183.932 33.3091 184.344 36.1976 184.344 39.3804V44.1947H156.835C156.951 45.1501 157.149 46.0594 157.429 46.9227C157.933 48.3938 158.637 49.6642 159.539 50.734C160.468 51.8039 161.583 52.633 162.884 53.2214C164.211 53.8098 165.71 54.104 167.383 54.104C169.453 54.104 171.377 53.7028 173.156 52.9004C174.961 52.0713 176.513 50.8276 177.814 49.1694L183.388 55.2675C182.486 56.578 181.251 57.8351 179.685 59.0386C178.146 60.2422 176.288 61.2318 174.111 62.0074C171.935 62.7563 169.453 63.1307 166.666 63.1307ZM157.19 35.208C157.107 35.6251 157.035 36.0531 156.974 36.4919H173.076V35.6092C173.076 34.0045 172.784 32.5736 172.2 31.3165C171.643 30.0327 170.793 29.0164 169.652 28.2675C168.511 27.5186 167.051 27.1442 165.272 27.1442C163.76 27.1442 162.459 27.4785 161.371 28.1471C160.282 28.8158 159.393 29.7519 158.703 30.9555C158.04 32.159 157.535 33.5765 157.19 35.208ZM202.34 31.5401V62.3284H190.833V18.9198H201.623L202.019 23.89C203.424 22.0899 205.137 20.6873 207.157 19.6821C209.254 18.639 211.683 18.1174 214.443 18.1174C216.354 18.1174 218.106 18.4116 219.699 19C221.291 19.5617 222.658 20.4577 223.8 21.688C224.626 22.5399 225.32 23.5795 225.881 24.8067C226.069 24.523 226.265 24.2457 226.467 23.9748C227.874 22.1293 229.613 20.6984 231.683 19.6821C233.753 18.639 236.142 18.1174 238.85 18.1174C240.92 18.1174 242.804 18.425 244.503 19.0402C246.202 19.6286 247.649 20.5781 248.843 21.8886C250.064 23.1724 250.993 24.8574 251.63 26.9436C252.294 29.0298 252.625 31.584 252.625 34.6063V62.3284H241.119V34.6063C241.119 32.6003 240.854 31.0758 240.323 30.0327C239.818 28.9629 239.075 28.2274 238.093 27.8262C237.138 27.3983 235.996 27.1843 234.669 27.1843C233.289 27.1843 232.081 27.4651 231.046 28.0268C230.011 28.5617 229.148 29.3106 228.458 30.2734C228.061 30.8274 227.721 31.4346 227.438 32.0948C227.454 32.5074 227.463 32.93 227.463 33.3626V62.3284H215.996V34.6464C215.996 32.6672 215.731 31.1427 215.2 30.0728C214.669 29.003 213.912 28.2541 212.93 27.8262C211.975 27.3983 210.82 27.1843 209.467 27.1843C207.98 27.1843 206.679 27.4919 205.565 28.107C204.476 28.7222 203.574 29.578 202.857 30.6746C202.672 30.9506 202.5 31.2391 202.34 31.5401ZM272.971 79.0178V58.5584C274.047 59.7684 275.282 60.7576 276.673 61.526C278.611 62.5958 280.894 63.1307 283.521 63.1307C286.229 63.1307 288.618 62.5825 290.688 61.4859C292.785 60.3625 294.537 58.8113 295.943 56.8321C297.35 54.8261 298.412 52.4725 299.129 49.7712C299.872 47.0698 300.243 44.1412 300.243 40.9852V40.1427C300.243 36.8529 299.872 33.8574 299.129 31.156C298.412 28.4547 297.337 26.1278 295.904 24.1754C294.497 22.2229 292.745 20.7252 290.648 19.6821C288.578 18.639 286.176 18.1174 283.442 18.1174C280.841 18.1174 278.571 18.6524 276.633 19.7222C275.085 20.5892 273.728 21.746 272.563 23.1926L272.134 18.9198H261.504V79.0178H272.971ZM275.559 52.74C274.44 51.9418 273.578 50.8964 272.971 49.6038V31.5863C273.213 31.0697 273.492 30.5919 273.807 30.1531C274.497 29.1902 275.386 28.4547 276.474 27.9465C277.589 27.4384 278.929 27.1843 280.495 27.1843C281.982 27.1843 283.243 27.5186 284.278 28.1873C285.34 28.8292 286.189 29.7385 286.826 30.9153C287.49 32.0922 287.967 33.4696 288.259 35.0476C288.578 36.5988 288.737 38.2972 288.737 40.1427V40.9852C288.737 42.8039 288.591 44.5022 288.299 46.0802C288.034 47.6583 287.569 49.049 286.906 50.2526C286.269 51.4562 285.432 52.4056 284.397 53.101C283.362 53.7697 282.088 54.104 280.575 54.104C278.505 54.104 276.833 53.6493 275.559 52.74ZM319.474 62.3284V18.9198H307.967V62.3284H319.474ZM309.003 3.43395C307.835 4.53053 307.251 5.92132 307.251 7.60631C307.251 9.2913 307.835 10.6821 309.003 11.7787C310.171 12.8752 311.737 13.4235 313.701 13.4235C315.638 13.4235 317.191 12.8752 318.359 11.7787C319.553 10.6821 320.151 9.2913 320.151 7.60631C320.151 5.92132 319.553 4.53053 318.359 3.43395C317.191 2.33737 315.638 1.78908 313.701 1.78908C311.737 1.78908 310.171 2.33737 309.003 3.43395ZM340.416 62.3284V33.6967C340.792 32.8489 341.283 32.109 341.889 31.477C342.686 30.6746 343.668 30.0728 344.836 29.6717C346.03 29.2437 347.437 29.0298 349.056 29.0298C349.693 29.0298 350.396 29.0699 351.166 29.1501C351.962 29.2036 352.639 29.2705 353.197 29.3507L353.396 18.639C352.971 18.4785 352.427 18.3581 351.763 18.2779C351.1 18.1709 350.449 18.1174 349.812 18.1174C347.795 18.1174 346.004 18.5989 344.438 19.5617C342.871 20.5246 341.544 21.8886 340.456 23.6538C340.341 23.8452 340.229 24.0402 340.12 24.2388L339.739 18.9198H328.95V62.3284H340.416ZM368.844 61.526C371.498 62.5958 374.497 63.1307 377.842 63.1307C380.629 63.1307 383.111 62.7563 385.287 62.0074C387.464 61.2318 389.322 60.2422 390.861 59.0386C392.427 57.8351 393.661 56.578 394.564 55.2675L388.99 49.1694C387.689 50.8276 386.136 52.0713 384.332 52.9004C382.553 53.7028 380.629 54.104 378.558 54.104C376.886 54.104 375.387 53.8098 374.059 53.2214C372.759 52.633 371.644 51.8039 370.715 50.734C369.813 49.6642 369.109 48.3938 368.605 46.9227C368.324 46.0594 368.126 45.1501 368.01 44.1947H395.519V39.3804C395.519 36.1976 395.108 33.3091 394.285 30.7147C393.462 28.0936 392.241 25.847 390.622 23.9748C389.03 22.1026 387.052 20.6583 384.69 19.642C382.328 18.6256 379.62 18.1174 376.568 18.1174C373.436 18.1174 370.622 18.6657 368.127 19.7623C365.632 20.8321 363.509 22.37 361.757 24.376C360.031 26.3819 358.704 28.7489 357.775 31.477C356.846 34.2051 356.382 37.214 356.382 40.5037V42.1085C356.382 44.997 356.873 47.7251 357.855 50.2927C358.837 52.8336 360.244 55.0669 362.075 56.9926C363.933 58.9183 366.189 60.4294 368.844 61.526ZM368.15 36.4919C368.211 36.0531 368.283 35.6251 368.366 35.208C368.711 33.5765 369.215 32.159 369.879 30.9555C370.569 29.7519 371.458 28.8158 372.546 28.1471C373.635 27.4785 374.935 27.1442 376.448 27.1442C378.227 27.1442 379.687 27.5186 380.828 28.2675C381.969 29.0164 382.819 30.0327 383.376 31.3165C383.96 32.5736 384.252 34.0045 384.252 35.6092V36.4919H368.15ZM109.771 141.483H102.405V103.771H95.5972V98.0742H102.405V93.5007C102.405 90.3714 102.963 87.7369 104.078 85.5973C105.219 83.4309 106.851 81.7994 108.975 80.7028C111.098 79.5794 113.62 79.0178 116.54 79.0178C117.389 79.0178 118.238 79.0713 119.088 79.1783C119.964 79.2852 120.813 79.4457 121.636 79.6597L121.238 85.7176C120.68 85.5839 120.043 85.4903 119.327 85.4368C118.636 85.3833 117.946 85.3566 117.256 85.3566C115.69 85.3566 114.337 85.6775 113.195 86.3194C112.08 86.9346 111.231 87.8439 110.647 89.0475C110.063 90.2511 109.771 91.7355 109.771 93.5007V98.0742H118.928V103.771H109.771V141.483ZM45.0727 122.908H37.4283C37.0036 125.636 36.2869 127.976 35.2783 129.929C34.2962 131.881 32.8363 133.379 30.8987 134.422C28.9611 135.465 26.3599 135.986 23.0951 135.986C20.5204 135.986 18.2908 135.452 16.4062 134.382C14.5217 133.285 12.9689 131.787 11.748 129.888C10.527 127.989 9.61125 125.783 9.00076 123.269C8.41682 120.755 8.12484 118.067 8.12484 115.205V109.307C8.12484 106.205 8.45663 103.383 9.1202 100.842C9.78378 98.3016 10.7659 96.1218 12.0665 94.3031C13.3936 92.4843 15.026 91.0802 16.9636 90.0906C18.9278 89.101 21.1973 88.6062 23.7719 88.6062C26.7713 88.6062 29.2 89.1411 31.058 90.2109C32.916 91.2808 34.3493 92.8053 35.3579 94.7845C36.3666 96.7369 37.0567 99.0772 37.4283 101.805H45.0727C44.6745 97.9539 43.6261 94.5705 41.9273 91.6552C40.2551 88.7132 37.9061 86.413 34.8802 84.7548C31.8543 83.0965 28.1515 82.2674 23.7719 82.2674C20.1886 82.2674 16.9636 82.9093 14.097 84.1931C11.2304 85.4769 8.77515 87.309 6.73134 89.6894C4.71407 92.0698 3.16131 94.9316 2.07305 98.2748C1.01133 101.591 0.480469 105.296 0.480469 109.388V115.205C0.480469 119.297 1.01133 123.015 2.07305 126.358C3.16131 129.674 4.7008 132.523 6.69152 134.903C8.68225 137.257 11.0578 139.076 13.8183 140.359C16.6053 141.643 19.6976 142.285 23.0951 142.285C27.7401 142.285 31.6154 141.443 34.7209 139.758C37.8264 138.046 40.2286 135.732 41.9273 132.817C43.6261 129.902 44.6745 126.599 45.0727 122.908ZM79.9969 136.895C79.646 137.265 79.2721 137.631 78.8751 137.992C77.5214 139.223 75.9023 140.252 74.0178 141.082C72.1597 141.884 70.0629 142.285 67.7271 142.285C64.8073 142.285 62.2459 141.71 60.0429 140.56C57.8664 139.41 56.1676 137.872 54.9466 135.946C53.7522 133.994 53.155 131.814 53.155 129.407C53.155 127.08 53.6062 125.034 54.5087 123.269C55.4111 121.477 56.7117 119.992 58.4105 118.816C60.1092 117.612 62.153 116.703 64.5419 116.088C66.9308 115.472 69.5984 115.165 72.5446 115.165H79.8307V111.715C79.8307 110.003 79.4856 108.518 78.7955 107.261C78.1319 105.978 77.1233 104.988 75.7696 104.293C74.4159 103.597 72.7437 103.25 70.753 103.25C68.895 103.25 67.2626 103.57 65.8558 104.212C64.4756 104.854 63.3873 105.697 62.591 106.74C61.8213 107.783 61.4364 108.906 61.4364 110.11H54.0707C54.0707 108.559 54.4689 107.021 55.2651 105.496C56.0614 103.972 57.2028 102.594 58.6892 101.364C60.2021 100.107 62.0071 99.1173 64.104 98.3952C66.2274 97.6463 68.5897 97.2718 71.1909 97.2718C74.323 97.2718 77.0835 97.8068 79.4723 98.8766C81.8877 99.9464 83.7723 101.565 85.126 103.731C86.5062 105.871 87.1963 108.559 87.1963 111.795V132.015C87.1963 133.459 87.3158 134.997 87.5547 136.628C87.8201 138.26 88.205 139.664 88.7093 140.841V141.483H81.0251C80.6535 140.627 80.3615 139.49 80.1492 138.073C80.0902 137.672 80.0395 137.279 79.9969 136.895ZM79.8307 129.278C79.578 129.784 79.2595 130.295 78.8751 130.811C77.8665 132.202 76.4995 133.379 74.7742 134.342C73.0489 135.304 71.0582 135.786 68.8021 135.786C66.9971 135.786 65.4709 135.465 64.2234 134.823C63.0024 134.154 62.0867 133.258 61.4762 132.135C60.8657 131.012 60.5605 129.768 60.5605 128.404C60.5605 127.067 60.8524 125.903 61.4364 124.914C62.0203 123.897 62.8697 123.055 63.9845 122.386C65.0993 121.718 66.4796 121.223 68.1252 120.902C69.7709 120.554 71.6422 120.38 73.7391 120.38H79.8307V129.278ZM135.889 140.761C138.331 141.777 141.052 142.285 144.051 142.285C146.891 142.285 149.347 141.884 151.417 141.082C153.514 140.279 155.279 139.236 156.712 137.952C158.146 136.669 159.327 135.318 160.256 133.9L155.797 130.33C154.443 132.122 152.864 133.553 151.059 134.622C149.254 135.692 147.051 136.227 144.45 136.227C142.432 136.227 140.627 135.839 139.035 135.064C137.469 134.288 136.128 133.218 135.013 131.854C133.925 130.49 133.089 128.912 132.505 127.12C131.999 125.468 131.722 123.716 131.676 121.865H160.813V118.535C160.813 115.486 160.468 112.677 159.778 110.11C159.088 107.516 158.026 105.269 156.593 103.37C155.16 101.444 153.315 99.9464 151.059 98.8766C148.829 97.8068 146.175 97.2718 143.096 97.2718C140.68 97.2718 138.345 97.7666 136.088 98.7562C133.832 99.7458 131.815 101.203 130.037 103.129C128.258 105.055 126.852 107.409 125.816 110.19C124.781 112.945 124.264 116.088 124.264 119.618V121.303C124.264 124.352 124.728 127.16 125.657 129.728C126.586 132.296 127.913 134.515 129.639 136.388C131.39 138.26 133.474 139.718 135.889 140.761ZM131.892 115.807C132.031 114.692 132.235 113.648 132.505 112.677C133.063 110.672 133.846 108.973 134.854 107.582C135.863 106.192 137.071 105.149 138.477 104.453C139.884 103.731 141.424 103.37 143.096 103.37C145.617 103.37 147.608 103.958 149.068 105.135C150.528 106.312 151.59 107.81 152.253 109.628C152.943 111.447 153.341 113.319 153.448 115.245V115.807H131.892Z"
        fill="white" />
</svg>